<svg width="90" height="28" viewBox="0 0 90 28" fill="none" xmlns="http://www.w3.org/2000/svg">
<path d="M16.6359 27.4194H23.2981L12.4001 11.95L23.2218 0.000976562H16.2523L5.31498 12.4141V0.000976562H0V27.4194H5.31498V19.8007L8.7027 16.0506L16.6359 27.4194Z" fill="white"/>
<path d="M29.0105 27.4192V0.00537109H23.8896V27.4192H29.0105Z" fill="white"/>
<path d="M57.7532 16.4749C57.7532 14.2703 59.0634 12.5298 61.2957 12.5298C63.7614 12.5298 64.8013 14.1937 64.8013 16.3195V27.4191H69.9222V15.4307C69.9222 11.2535 67.7661 7.88855 63.0682 7.88855C61.0277 7.88855 58.7561 8.77736 57.6007 10.7499V8.38981H52.6323V27.4168H57.7532V16.4726V16.4749Z" fill="white"/>
<path d="M75.7314 15.7417C75.847 14.0012 77.3097 11.9915 79.9672 11.9915C82.8951 11.9915 84.1268 13.848 84.203 15.7417H75.7314ZM84.7045 20.6916C84.0875 22.3926 82.7796 23.5924 80.3924 23.5924C77.8505 23.5924 75.7337 21.7753 75.6182 19.2621H89.1737C89.1737 19.1855 89.25 18.4104 89.25 17.6771C89.25 11.5668 85.7444 7.81433 79.891 7.81433C75.0382 7.81433 70.5713 11.7594 70.5713 17.8302C70.5713 24.2492 75.1537 28.0016 80.3532 28.0016C85.0118 28.0016 88.016 25.2563 88.9796 21.968L84.7045 20.6916Z" fill="white"/>
<path d="M41.8566 23.3209C40.9808 23.3209 40.128 23.0935 39.3909 22.6456V27.7162C40.1743 27.9019 40.9992 27.9993 41.8566 27.9993C47.5182 27.9993 51.791 23.7456 51.791 17.9068C51.791 12.0286 47.5159 7.81433 41.8566 7.81433C36.7473 7.81433 32.768 11.2489 32.04 16.2406H37.2302C37.8287 13.7505 39.7768 12.4928 41.8566 12.4928C44.3592 12.4928 46.6701 14.3098 46.6701 17.9068C46.6701 21.5038 44.3592 23.3209 41.8566 23.3209Z" fill="white"/>
<path fill-rule="evenodd" clip-rule="evenodd" d="M31.1066 17.9973C31.7143 17.9184 32.5924 17.9671 33.2302 17.9625C33.9535 17.9578 34.656 17.9485 35.3747 17.9462C36.782 17.9416 38.2101 17.9277 39.6151 17.916C40.3269 17.9091 41.1657 17.8047 41.2558 18.7747C41.3159 19.4059 40.4979 19.9002 40.0242 20.3179C39.5065 20.7728 38.9958 21.223 38.4597 21.6917C37.6809 22.3717 37.8034 22.4529 37.7341 23.4786C37.6879 24.1679 37.6394 24.8153 37.5908 25.5046C37.54 26.1984 37.681 27.0594 37.0224 27.375C36.202 27.7672 35.8276 27.0478 35.3909 26.4653L31.5202 21.3645C31.2337 20.9909 30.3994 19.9791 30.2354 19.6217C29.9049 18.9023 30.3162 18.1017 31.1089 17.9996L31.1066 17.9973Z" fill="#D1A020"/>
</svg>
