<?xml version="1.0" encoding="UTF-8"?>
<svg version="1.1" xmlns="http://www.w3.org/2000/svg" width="1099" height="1019">
<path d="M0 0 C1.28574921 -0.00696899 2.57149841 -0.01393799 3.89620972 -0.02111816 C8.01805051 -0.04036265 12.1398379 -0.04529357 16.26171875 -0.046875 C17.31537817 -0.04775871 17.31537817 -0.04775871 18.39032364 -0.04866028 C40.05426164 -0.06148066 61.43670744 0.39107088 82.94921875 3.203125 C84.15787598 3.35297852 85.3665332 3.50283203 86.61181641 3.65722656 C165.84393894 13.58891777 243.12735427 40.45210867 308.94921875 86.203125 C309.57425293 86.63270508 310.19928711 87.06228516 310.84326172 87.50488281 C320.64559662 94.249333 330.0956377 101.30958599 339.29589844 108.85400391 C340.78694108 110.07070527 342.29300108 111.26894687 343.80078125 112.46484375 C351.21846788 118.38367629 358.08673961 124.82965865 364.97460938 131.34619141 C366.96958202 133.22227473 368.97995953 135.08028618 370.99609375 136.93359375 C382.62126731 147.63694738 382.62126731 147.63694738 387.48828125 153.4921875 C389.01290276 155.27770681 390.63412239 156.8867086 392.32421875 158.515625 C396.05355627 162.1868214 399.29688396 166.19110067 402.57421875 170.265625 C404.92877083 173.17783415 407.3399654 176.03419798 409.76171875 178.890625 C426.36838401 198.86454036 440.62915508 220.64439037 453.69873047 243.06494141 C454.81137592 244.96743045 455.9407074 246.85836057 457.078125 248.74609375 C491.46646883 306.89365695 509.78721535 375.59942199 517.94921875 442.203125 C518.10165039 443.39631348 518.25408203 444.58950195 518.41113281 445.81884766 C523.62550219 488.31652118 523.33526131 533.7474124 517.94921875 576.203125 C517.81 577.37278809 517.67078125 578.54245117 517.52734375 579.74755859 C508.82808986 651.8889407 486.1481201 723.13956951 447.94921875 785.203125 C447.40942383 786.08403809 446.86962891 786.96495117 446.31347656 787.87255859 C439.15700755 799.49122529 431.65759458 810.68943147 423.28808594 821.46728516 C421.24065411 824.12177828 419.25597319 826.82096632 417.26171875 829.515625 C406.8322477 843.3967099 395.59721029 856.8762913 383.15234375 869 C381.09662064 871.05572311 379.20275919 873.17360881 377.32421875 875.390625 C374.45315002 878.74580837 371.3386561 881.5795497 367.97265625 884.4296875 C365.92112903 886.22774417 364.03402334 888.1188676 362.13671875 890.078125 C358.28854997 893.9867758 354.14270818 897.41644442 349.85546875 900.83203125 C347.5503311 902.71270135 345.31647797 904.63090995 343.08984375 906.6015625 C339.24165449 909.98458105 335.27632812 913.16394779 331.19921875 916.265625 C330.4731543 916.81798828 329.74708984 917.37035156 328.99902344 917.93945312 C306.82469271 934.68083743 283.56202999 949.32153555 258.94921875 962.203125 C257.98612793 962.70730957 257.02303711 963.21149414 256.03076172 963.73095703 C225.11613227 979.79759028 192.58654859 992.14562577 158.94921875 1001.203125 C157.9756543 1001.46577148 157.00208984 1001.72841797 155.99902344 1001.99902344 C123.88524456 1010.55917076 91.0812886 1015.73264805 57.94921875 1018.203125 C56.36898926 1018.33448853 56.36898926 1018.33448853 54.75683594 1018.46850586 C43.48767409 1019.33352438 32.24649024 1019.40207634 20.94921875 1019.390625 C19.93887573 1019.39035309 18.92853271 1019.39008118 17.88757324 1019.38980103 C0.50030979 1019.36837463 -16.72895837 1018.81468871 -34.05078125 1017.203125 C-35.15115723 1017.10128906 -36.2515332 1016.99945312 -37.38525391 1016.89453125 C-50.17951733 1015.65988007 -62.86904463 1013.84594252 -75.55078125 1011.765625 C-76.730354 1011.57250732 -77.90992676 1011.37938965 -79.12524414 1011.18041992 C-88.87664627 1009.52237715 -98.35891708 1007.35687259 -108.05078125 1005.203125 C-108.05078125 920.393125 -108.05078125 835.583125 -108.05078125 748.203125 C-101.32798332 750.44405764 -101.32798332 750.44405764 -98.01171875 752.3046875 C-97.27703369 752.70848633 -96.54234863 753.11228516 -95.78540039 753.52832031 C-95.00672607 753.95725586 -94.22805176 754.38619141 -93.42578125 754.828125 C-37.70866673 784.72167657 30.20637631 788.83735763 90.38671875 771.015625 C123.57858916 760.77560942 153.14822181 743.56150785 178.73828125 720.19140625 C180.50001958 718.6070868 182.28010662 717.10921502 184.13671875 715.640625 C187.80814993 712.45871798 190.81496246 708.90505006 193.94921875 705.203125 C194.75230469 704.29949219 195.55539062 703.39585937 196.3828125 702.46484375 C242.40371309 650.26469887 260.23904728 578.54619577 260.13671875 510.328125 C260.1361145 509.57266388 260.13551025 508.81720276 260.1348877 508.03884888 C260.02887586 458.73494389 251.25992703 407.99370843 227.93603516 364.07519531 C226.95255049 362.20944558 226.00102019 360.33013669 225.0546875 358.4453125 C218.22830783 345.01811744 209.65087899 332.7150588 199.94921875 321.203125 C199.49933594 320.66445801 199.04945313 320.12579102 198.5859375 319.57080078 C189.18929585 308.33635949 179.47891362 298.3006546 167.94921875 289.203125 C166.97339844 288.41035156 165.99757813 287.61757813 164.9921875 286.80078125 C156.13982883 279.75229944 146.73604901 273.86605198 136.94921875 268.203125 C136.27439453 267.80738281 135.59957031 267.41164063 134.90429688 267.00390625 C107.94185635 251.34484763 77.6296601 243.40171107 46.94921875 239.203125 C46.20841064 239.0985498 45.46760254 238.99397461 44.7043457 238.88623047 C35.77562859 237.80554348 26.74168568 237.95922117 17.76171875 237.953125 C16.86938538 237.95245026 15.977052 237.95177551 15.05767822 237.95108032 C1.15751643 237.96775989 -12.37523966 238.50832245 -26.05078125 241.203125 C-26.97971191 241.38536621 -27.90864258 241.56760742 -28.86572266 241.75537109 C-53.13947724 246.66093993 -76.17864407 254.55495291 -98.05078125 266.203125 C-99.04440674 266.72495361 -99.04440674 266.72495361 -100.05810547 267.25732422 C-115.47396577 275.39937274 -129.03050363 285.65937371 -142.05078125 297.203125 C-142.63778809 297.72165039 -143.22479492 298.24017578 -143.82958984 298.77441406 C-151.66358069 305.73935754 -158.63152798 312.88187076 -165.05078125 321.203125 C-165.70175781 321.98816406 -166.35273438 322.77320313 -167.0234375 323.58203125 C-172.95501589 330.74001949 -178.03788837 338.38943433 -183.05078125 346.203125 C-183.43379395 346.7919043 -183.81680664 347.38068359 -184.21142578 347.98730469 C-193.88203803 362.94463027 -200.78909337 379.25424723 -206.86328125 395.953125 C-207.38631836 397.38664307 -207.38631836 397.38664307 -207.91992188 398.84912109 C-211.11412645 407.88567795 -213.46678203 416.90072782 -216.05078125 426.203125 C-303.17078125 426.203125 -390.29078125 426.203125 -480.05078125 426.203125 C-478.92188513 412.65637156 -478.92188513 412.65637156 -477.703125 406.17578125 C-477.50533951 405.12160255 -477.50533951 405.12160255 -477.30355835 404.04612732 C-476.87445878 401.78404151 -476.43334812 399.52462088 -475.98828125 397.265625 C-475.83394623 396.47800781 -475.67961121 395.69039063 -475.52059937 394.87890625 C-459.30456413 312.73116495 -422.17400869 233.66862419 -354.05078125 155.203125 C-353.54901367 154.65092285 -353.04724609 154.0987207 -352.53027344 153.52978516 C-341.15424021 141.0215561 -341.15424021 141.0215561 -334.94140625 135.83984375 C-331.96631256 133.26429777 -329.25812991 130.43223823 -326.51953125 127.609375 C-268.15538203 70.72279918 -188.74604212 32.74317376 -110.05078125 14.203125 C-109.09123535 13.97431641 -108.13168945 13.74550781 -107.14306641 13.50976562 C-72.13700058 5.25024758 -35.99871815 0.1325192 0 0 Z " fill="#FEFEFE" transform="translate(578.05078125,-0.203125)"/>
<path d="M0 0 C6.8875135 -0.05205301 13.77499442 -0.09152807 20.66265388 -0.11820906 C24.32808732 -0.13270805 27.9933186 -0.15204015 31.65863752 -0.1848774 C78.52304388 -0.59233003 78.52304388 -0.59233003 94.06217957 13.25408936 C102.45165109 22.78757972 107.00529576 37.08893647 106.39811707 49.74627686 C104.32048785 64.09641352 96.76560533 76.46787497 86.06217957 86.06658936 C85.27585144 86.85420654 84.48952332 87.64182373 83.67936707 88.45330811 C76.43801432 95.68385286 68.68433601 102.29972773 60.72575378 108.72088623 C50.96477029 116.61676839 41.31895392 124.58264402 32.06217957 133.06658936 C28.34812764 136.37309521 24.58550615 139.62233756 20.80436707 142.85174561 C19.5986128 143.88166414 18.39288434 144.91161288 17.18717957 145.94158936 C16.5786615 146.46124268 15.97014343 146.980896 15.34318542 147.51629639 C11.80594099 150.54551468 8.31825379 153.61807519 4.87467957 156.75408936 C1.58275751 159.74577096 -1.78373351 162.59183358 -5.25032043 165.37908936 C-10.05995436 169.26614188 -14.57992107 173.38754654 -19.08796692 177.61346436 C-23.40261432 181.63438409 -27.91347188 185.35356338 -32.51203918 189.04705811 C-35.27692121 191.34890031 -37.7763266 193.81032972 -40.26985168 196.39862061 C-42.03966297 198.16843189 -43.89932775 199.76634208 -45.81282043 201.37908936 C-62.89710297 216.21195481 -69.17511522 232.0070625 -70.75984192 254.04046631 C-71.03734873 258.04456692 -71.29880909 262.04960756 -71.55891418 266.05487061 C-71.70527621 268.23827136 -71.85218425 270.42163557 -71.99960327 272.60496521 C-72.38703709 278.36545415 -72.76691262 284.12641755 -73.1452179 289.88751221 C-73.52000076 295.57446937 -73.90210534 301.26093345 -74.28352356 306.94744873 C-75.03239498 318.13206646 -75.77122791 329.31732651 -76.50614929 340.50286865 C-76.86289233 345.93200676 -77.22182867 351.36099719 -77.58146 356.78994465 C-77.85554276 360.93155162 -78.12835091 365.07324185 -78.40080452 369.21495628 C-78.52661828 371.12473603 -78.65285154 373.03448819 -78.77956963 374.94420815 C-79.73221153 389.31365471 -80.53912593 403.68709741 -81.22045898 418.07196045 C-82.08182776 436.00292895 -83.34937245 453.42248095 -94.93782043 468.06658936 C-95.41477356 468.68018311 -95.89172668 469.29377686 -96.38313293 469.92596436 C-104.19500039 478.79773343 -116.69080149 483.44658674 -128.21125793 484.31268311 C-141.78885578 484.79864919 -152.15115419 480.40588937 -162.03547668 471.24627686 C-169.48130854 464.12384204 -175.87734663 456.38631845 -181.93782043 448.06658936 C-183.02819251 446.58424906 -184.11938852 445.10251459 -185.21125793 443.62127686 C-186.99557406 441.19965156 -188.7790563 438.77744745 -190.55915833 436.35272217 C-196.00946327 428.9368418 -201.59071921 421.62712304 -207.20002747 414.33123779 C-210.39458139 410.16817483 -213.57152495 405.99168931 -216.75032043 401.81658936 C-218.11098682 400.03012288 -219.47166397 398.24366459 -220.83235168 396.45721436 C-221.51120422 395.56582764 -222.19005676 394.67444092 -222.88948059 393.75604248 C-226.23829533 389.35907667 -229.5881007 384.96286573 -232.93782043 380.56658936 C-234.27115867 378.81659309 -235.604492 377.06659309 -236.93782043 375.31658936 C-237.59782043 374.45033936 -238.25782043 373.58408936 -238.93782043 372.69158936 C-356.93782044 217.81658935 -356.93782044 217.81658935 -358.93830872 215.19085693 C-360.26989673 213.44320864 -361.60160221 211.69564985 -362.9334259 209.94818115 C-366.29443812 205.53793144 -369.65330987 201.12608062 -373.00813293 196.71112061 C-384.00840645 182.24055417 -395.07992034 167.83476221 -406.47444153 153.67181396 C-410.71535964 148.38294968 -414.84076075 143.01035284 -418.93977356 137.61102295 C-421.74379639 133.92094891 -424.56974253 130.25263601 -427.44953918 126.62127686 C-462.51188293 82.35103037 -462.51188293 82.35103037 -459.93782043 56.06658936 C-457.72765952 39.24149054 -450.28316794 25.43310216 -437.06282043 14.75408936 C-425.96732039 6.9916249 -412.79531059 3.89208208 -399.4622345 2.88299561 C-398.41406681 2.80279678 -397.36589912 2.72259796 -396.28596878 2.63996887 C-379.88072322 1.56123335 -363.41125173 1.88840362 -346.98070526 1.97311401 C-335.54787781 2.03140374 -324.11491154 2.04328178 -312.68196106 2.05877686 C-310.85045903 2.06165931 -310.85045903 2.06165931 -308.98195696 2.06459999 C-278.22166865 2.10965663 -247.46408778 1.88630521 -216.70498395 1.64610672 C-213.0478527 1.61767655 -209.39071696 1.58983844 -205.73358154 1.56195068 C-187.14417156 1.41992626 -168.55481572 1.27148435 -149.96547046 1.12125993 C-141.6344809 1.0539746 -133.30348583 0.98738565 -124.9724884 0.92108154 C-123.84672751 0.91212056 -123.84672751 0.91212056 -122.69822398 0.90297854 C-109.96506405 0.80170168 -97.23188788 0.70258722 -84.49870181 0.60465527 C-77.4764522 0.55054259 -70.45421497 0.49533329 -63.43199921 0.4369812 C-47.96342648 0.30883214 -32.49490625 0.19825057 -17.02603149 0.11364746 C-11.35062599 0.08216573 -5.67532721 0.04317853 0 0 Z " fill="#D09F1F" transform="translate(459.9378204345703,508.93341064453125)"/>
</svg>
